<svg xmlns="http://www.w3.org/2000/svg" viewBox="0 -0.5 32 32" shape-rendering="crispEdges">

<path stroke="#000000" d="M0 0h1M30 0h1M0 1h3M29 1h2M1 2h4M28 2h2M2 3h1M5 3h2M26 3h4M2 4h1M7 4h2M25 4h1M29 4h1M3 5h1M9 5h1M24 5h1M29 5h1M4 6h1M10 6h1M22 6h2M29 6h1M5 7h1M11 7h1M21 7h1M29 7h1M6 8h1M11 8h1M28 8h2M7 9h2M28 9h1M27 10h2M27 11h1M29 11h1M27 12h1M29 12h1M29 13h1M29 14h1M11 15h1M18 15h1M11 16h1M18 16h1M9 17h1M11 17h1M22 17h2M11 18h1M18 18h1M20 18h2M10 19h2M18 19h2M17 20h1M9 24h1M12 26h1M15 26h1" />
<path stroke="#663300" d="M3 3h1M28 4h1M4 5h1M5 6h1M28 6h1M6 7h2M27 7h1M7 8h1M15 8h3M19 8h1M25 8h1M27 8h1M11 9h1M15 9h3M19 9h1M26 9h2M11 10h1M14 10h1M16 10h1M18 10h1M26 10h1M9 11h1M14 11h1M16 11h1M18 11h1M10 12h1M14 12h3M22 12h3M8 13h1M10 13h1M13 13h1M15 13h2M21 13h1M23 13h1M7 14h1M9 14h1M13 14h1M15 14h2M21 14h2M24 14h1M7 15h2M14 15h2M20 15h1M22 15h2M25 15h2M14 16h1M16 16h1M24 16h1M26 16h1M7 17h2M10 17h1M13 17h1M18 17h4M24 17h2M7 18h1M9 18h1M12 18h1M14 18h2M17 18h1M23 18h1M25 18h2M7 19h1M9 19h1M12 19h1M14 19h1M17 19h1M20 19h1M23 19h1M27 19h1M8 20h1M10 20h4M15 20h1M18 20h2M22 20h1M28 20h1M10 21h1M12 21h1M17 21h1M21 21h2M28 21h1M11 22h2M17 22h1M23 22h1M29 22h1M8 23h1M11 23h1M17 23h2M21 23h1M23 23h1M10 24h2M17 24h3M22 24h1M9 25h1M11 25h2M14 25h3M18 25h1M18 26h1M21 26h1M9 27h1M11 27h1M17 27h1M19 27h2M10 28h2M14 28h1M17 28h2M20 28h1M13 29h1M15 29h4" />
<path stroke="#cc9966" d="M4 3h1M4 4h3M9 4h1M26 4h2M5 5h4M10 5h2M26 5h1M6 6h4M11 6h3M24 6h1M8 7h3M12 7h4M20 7h1M22 7h1M8 8h1M12 8h3M18 8h1M24 8h1M9 9h2M12 9h3M18 9h1M20 9h1M22 9h3M8 10h3M12 10h2M15 10h1M17 10h1M19 10h7M8 11h1M10 11h4M15 11h1M17 11h1M19 11h4M24 11h3M7 12h3M11 12h3M17 12h1M19 12h2M25 12h2M7 13h1M11 13h2M14 13h1M17 13h4M22 13h1M24 13h4M6 14h1M10 14h3M14 14h1M17 14h3M25 14h4M6 15h1M9 15h2M12 15h2M16 15h2M19 15h1M24 15h1M28 15h3M9 16h2M12 16h2M15 16h1M19 16h4M25 16h1M27 16h2M30 16h1M12 17h1M14 17h1M16 17h1M27 17h2M30 17h1M8 18h1M28 18h1M31 18h1M8 19h1M26 19h1M29 19h2M7 20h1M9 20h1M14 20h1M23 20h1M26 20h2M29 20h1M31 20h1M8 21h2M11 21h1M13 21h3M26 21h1M29 21h1M31 21h1M9 22h2M13 22h3M19 22h3M24 22h5M30 22h2M10 23h1M12 23h4M19 23h1M24 23h1M26 23h6M12 24h4M23 24h1M25 24h4M30 24h2M10 25h1M13 25h1M21 25h1M24 25h5M31 25h1M9 26h2M13 26h2M23 26h6M30 26h2M10 27h1M16 27h1M18 27h1M22 27h2M25 27h2M30 27h1M9 28h1M12 28h1M19 28h1M22 28h4M27 28h1M29 28h1M9 29h3M14 29h1M20 29h1M22 29h3M26 29h1M28 29h2M10 30h3M14 30h1M17 30h1M19 30h1M21 30h2M25 30h4M11 31h4M16 31h1M18 31h1M20 31h1M26 31h2" />
<path stroke="#996633" d="M3 4h1M25 5h1M27 5h2M25 6h3M23 7h4M28 7h1M9 8h2M20 8h4M26 8h1M21 9h1M25 9h1M23 11h1M28 11h1M18 12h1M21 12h1M28 12h1M9 13h1M28 13h1M8 14h1M20 14h1M23 14h1M21 15h1M7 16h2M23 16h1M15 17h1M26 17h1M6 18h1M13 18h1M27 18h1M6 19h1M13 19h1M15 19h1M28 19h1M6 20h1M7 21h1M23 21h3M27 21h1M7 22h2M16 22h1M22 22h1M9 23h1M16 23h1M20 23h1M22 23h1M25 23h1M16 24h1M20 24h2M29 24h1M19 25h1M29 25h1M19 26h1M13 27h2M24 27h1M27 27h2M16 28h1M21 28h1M26 28h1M12 29h1M19 29h1M25 29h1M13 30h1M15 30h1" />
<path stroke="#cccccc" d="M27 15h1M6 16h1M17 16h1M29 16h1M6 17h1M17 17h1M29 17h1M16 18h1M22 18h1M24 18h1M29 18h2M16 19h1M21 19h2M24 19h2M31 19h1M16 20h1M20 20h2M24 20h2M30 20h1M16 21h1M18 21h3M30 21h1M18 22h1M24 24h1M17 25h1M20 25h1M22 25h2M30 25h1M11 26h1M16 26h2M20 26h1M22 26h1M29 26h1M12 27h1M15 27h1M21 27h1M29 27h1M13 28h1M15 28h1M28 28h1M30 28h1M21 29h1M27 29h1M16 30h1M18 30h1M20 30h1M23 30h2M15 31h1M17 31h1M19 31h1M21 31h5" />
<path stroke="#cc9933" d="M10 18h1M19 18h1" />
</svg>